<svg xmlns="http://www.w3.org/2000/svg" viewBox="0 0 400 280">
  <defs>
    <linearGradient id="bg" x1="0" y1="0" x2="1" y2="1">
      <stop offset="0%" stop-color="#f9e8b2"/>
      <stop offset="100%" stop-color="#fdeed8"/>
    </linearGradient>
  </defs>
  <rect width="400" height="280" rx="32" fill="url(#bg)"/>
  <circle cx="280" cy="64" r="34" fill="#fff8e8" opacity="0.55"/>
  <path d="M145 70h84c10 0 18 8 18 18v100c0 34-24 58-60 58s-60-24-60-58V88c0-10 8-18 18-18z" fill="#efb329"/>
  <path d="M147 70h80c14 0 18 10 18 24 0 14-8 20-16 20H152c-15 0-23-7-23-23 0-11 6-21 18-21z" fill="#fff6df"/>
  <rect x="245" y="98" width="30" height="62" rx="15" fill="none" stroke="#b97b1d" stroke-width="12"/>
  <rect x="144" y="112" width="86" height="86" rx="16" fill="#c78016" opacity="0.35"/>
  <circle cx="168" cy="138" r="6" fill="#ffe6ab"/>
  <circle cx="196" cy="160" r="8" fill="#ffe6ab"/>
  <circle cx="180" cy="188" r="5" fill="#ffe6ab"/>
</svg>
