<svg xmlns="http://www.w3.org/2000/svg" viewBox="0 0 400 280">
  <defs>
    <linearGradient id="bg" x1="0" y1="0" x2="1" y2="1">
      <stop offset="0%" stop-color="#f9d6d6"/>
      <stop offset="100%" stop-color="#f4e3c1"/>
    </linearGradient>
  </defs>
  <rect width="400" height="280" rx="32" fill="url(#bg)"/>
  <circle cx="305" cy="80" r="44" fill="#ffffff" opacity="0.45"/>
  <path d="M170 45h60c0 32-10 48-20 60v16c0 10 7 17 17 27 15 16 25 37 25 69 0 31-24 55-52 55s-52-24-52-55c0-32 10-53 25-69 10-10 17-17 17-27v-16c-10-12-20-28-20-60z" fill="#7d1128"/>
  <path d="M187 45h26v58h-26z" fill="#f4ead9"/>
  <rect x="194" y="102" width="12" height="102" rx="6" fill="#f4ead9"/>
  <rect x="155" y="205" width="90" height="12" rx="6" fill="#6a4c38" opacity="0.9"/>
</svg>
