<svg xmlns="http://www.w3.org/2000/svg" viewBox="0 0 400 280">
  <defs>
    <linearGradient id="bg" x1="0" y1="0" x2="1" y2="1">
      <stop offset="0%" stop-color="#d8efe8"/>
      <stop offset="100%" stop-color="#f2efe6"/>
    </linearGradient>
  </defs>
  <rect width="400" height="280" rx="32" fill="url(#bg)"/>
  <ellipse cx="200" cy="212" rx="80" ry="18" fill="#7ab3a5" opacity="0.35"/>
  <path d="M150 70c0-18 14-32 32-32h36c18 0 32 14 32 32v18c0 12-6 23-17 30l-3 2v84c0 22-18 40-40 40s-40-18-40-40v-84l-3-2c-11-7-17-18-17-30V70z" fill="#f7f6f3"/>
  <rect x="172" y="26" width="56" height="20" rx="10" fill="#b7d8cd"/>
  <rect x="174" y="100" width="52" height="48" rx="14" fill="#90c2b4"/>
  <circle cx="200" cy="124" r="10" fill="#f4f7f2"/>
  <path d="M115 180c24-34 58-52 103-52s79 18 103 52" fill="none" stroke="#5b9a8a" stroke-width="12" stroke-linecap="round" opacity="0.55"/>
</svg>
